<?xml version="1.0" encoding="iso-8859-1"?>
<!-- Generator: Adobe Illustrator 19.0.0, SVG Export Plug-In . SVG Version: 6.00 Build 0)  -->
<svg version="1.1" id="Layer_1" xmlns="http://www.w3.org/2000/svg" xmlns:xlink="http://www.w3.org/1999/xlink" x="0px" y="0px"
	 viewBox="0 0 493.665 493.665" style="enable-background:new 0 0 493.665 493.665;" xml:space="preserve">
<g>
	<g>
		<polygon points="225.034,396.4 210.145,416.68 221.744,437.772 227.699,400.229 		"/>
	</g>
</g>
<g>
	<g>
		<polygon points="268.732,396.538 266.163,400.229 272.076,437.483 283.518,416.677 		"/>
	</g>
</g>
<g>
	<g>
		<polygon points="311.577,319.445 271.343,346.32 258.554,354.863 274.38,376.419 275.19,377.522 292.269,400.782 332.817,327.063 
					"/>
	</g>
</g>
<g>
	<g>
		<path d="M249.39,399.538c-0.333-2.106,0.161-4.251,1.378-5.994l7.674-11.016l-11.155-15.204l-0.421-0.573l-11.531,15.644
			l7.764,11.149c1.213,1.743,1.707,3.888,1.374,5.986l-9.795,61.757l12.157,22.097l12.313-22.378L249.39,399.538z"/>
	</g>
</g>
<g>
	<g>
		<path d="M330.19,378.269c1.458-2.459,4.086-3.977,6.942-4.026l23.936-0.369l-16.748-33.582l-43.847,79.719l-0.002,0.002
			l-22.595,41.083l61.707-56.456l-9.61-18.352C328.647,383.757,328.728,380.72,330.19,378.269z"/>
	</g>
</g>
<g>
	<g>
		<path d="M302.115,295.38c-2.496,2.249-4.985,4.221-7.463,6.063c-0.534,0.396-1.063,0.799-1.594,1.177
			c-2.435,1.733-4.847,3.302-7.226,4.683c-0.397,0.231-0.784,0.432-1.18,0.652c-2.29,1.286-4.545,2.435-6.75,3.432
			c-0.225,0.101-0.453,0.221-0.677,0.319c-2.376,1.049-4.676,1.922-6.915,2.68c-0.357,0.121-0.705,0.237-1.058,0.349
			c-4.587,1.487-8.822,2.429-12.568,2.987c-0.127,0.02-0.256,0.042-0.381,0.06c-1.898,0.273-3.653,0.458-5.266,0.571
			c-0.066,0.004-0.125,0.008-0.19,0.012c-3.169,0.21-5.722,0.174-7.528,0.066c-0.062-0.004-0.109-0.006-0.171-0.01
			c-0.816-0.052-1.526-0.112-1.995-0.167c-0.045,0-0.088,0-0.133,0c-2.196,0-4.471-0.264-6.784-0.684
			c-0.786-0.141-1.587-0.382-2.381-0.568c-1.553-0.361-3.103-0.742-4.679-1.249c-0.939-0.303-1.875-0.661-2.819-1.009
			c-1.454-0.536-2.899-1.091-4.352-1.721c-0.987-0.429-1.958-0.874-2.941-1.339c-1.415-0.67-2.809-1.363-4.205-2.097
			c-0.962-0.505-1.909-1.002-2.857-1.531c-1.418-0.791-2.795-1.6-4.172-2.431c-0.859-0.516-1.716-1.016-2.554-1.542
			c-1.52-0.955-2.969-1.911-4.409-2.875c-0.614-0.412-1.255-0.818-1.852-1.227c-1.958-1.346-3.832-2.677-5.576-3.961v9.883
			l1.358,0.907l54.019,36.087l55.401-37.001v-10.602C302.185,295.326,302.15,295.348,302.115,295.38z"/>
	</g>
</g>
<g>
	<g>
		<path d="M337.245,33.897c-2.407-0.578-4.424-2.21-5.492-4.444c-1.073-2.226-1.081-4.821-0.032-7.055
			c0.928-2.057,2.856-8.581,0.382-13.362c-1.957-3.777-6.573-6.46-13.724-7.963H199.392c-39.191,0-71.077,31.883-71.077,71.078
			v47.013c0,6.131,1.526,12.14,4.371,17.436v-21.42c0-0.603,0.065-1.206,0.197-1.792c8.855-39.685,43.996-44.683,45.486-44.884
			c0.35-0.04,0.703-0.065,1.057-0.065h39.472c2.792,0,5.516-0.418,8.088-1.245c7.066-2.274,18.428-6.5,26.716-9.65
			c2.403-0.91,4.872-1.591,7.373-2.057c1.07-0.2,2.157-0.206,3.236-0.323c1.454-0.159,2.9-0.385,4.361-0.396
			c0.1-0.002,0.2-0.028,0.3-0.028c1.67,0,3.332,0.227,4.993,0.422c0.689,0.081,1.384,0.061,2.069,0.175
			c2.436,0.406,4.847,1.011,7.201,1.838l41.545,14.583c32.49,11.932,36.126,42.112,36.266,43.389
			c0.032,0.297,0.048,0.594,0.048,0.892v26.588c0.369-0.627,0.751-1.253,1.137-1.872c2.303-3.688,3.515-7.858,3.515-12.077V65.306
			C365.158,61.836,360.51,39.498,337.245,33.897z"/>
	</g>
</g>
<g>
	<g>
		<path d="M138.302,412.507c-2.755-2.523-3.467-6.581-1.736-9.891l6.348-12.125l-23.643-0.362c-2.824-0.048-5.431-1.534-6.902-3.953
			c-1.471-2.418-1.595-5.416-0.333-7.946l20.409-40.923l-92.057,33.305c-15.062,5.448-26.046,18.649-28.657,34.446L0.208,474.593
			c-0.743,4.491,0.522,9.063,3.467,12.534c2.941,3.471,7.244,5.464,11.796,5.464h210.385L138.302,412.507z"/>
	</g>
</g>
<g>
	<g>
		<path d="M319.218,87.243l-41.436-14.544c-5.914-2.064-12.39-1.992-18.235,0.225c-8.469,3.222-20.124,7.561-27.528,9.939
			c-4.202,1.35-8.618,2.033-13.121,2.033H180.08c-2.187,0.397-11.314,2.457-19.358,10.217c-0.042,0.042-0.081,0.09-0.124,0.13
			c-0.76,0.741-1.512,1.524-2.246,2.37c-0.145,0.167-0.28,0.366-0.424,0.538c-0.624,0.744-1.243,1.503-1.836,2.331
			c-0.197,0.276-0.373,0.593-0.566,0.878c-0.521,0.772-1.046,1.539-1.534,2.383c-0.244,0.422-0.457,0.901-0.69,1.342
			c-0.407,0.765-0.826,1.511-1.2,2.334c-0.334,0.735-0.62,1.55-0.926,2.333c-0.233,0.598-0.492,1.156-0.707,1.783
			c-0.497,1.451-0.942,2.978-1.329,4.586V177.5v14.415c0.011,0.369,1.799,56.51,37.785,80.325c0.024,0.016,0.872,0.603,0.892,0.611
			c2.877,1.945,5.677,3.994,8.4,6.131c18.529,14.544,35.535,23.125,45.181,22.812c0.458,0.008,0.968,0.024,1.446,0.096
			c0.068,0.009,0.222,0.028,0.451,0.052l0.008,0.001c0.079,0.008,0.221,0.018,0.318,0.028c3.224,0.287,17.069,0.868,33.717-8.746
			c0.161-0.093,0.316-0.165,0.477-0.26c1.074-0.631,2.169-1.352,3.263-2.071c0.378-0.25,0.747-0.456,1.127-0.716
			c0.68-0.465,1.372-1.01,2.057-1.511c2.295-1.674,4.609-3.492,6.944-5.603c4.379-3.945,9.277-7.802,14.571-11.458l1.495-1.037
			c11.954-8.027,32.671-29.209,37.363-80.812v-73.163C344.194,113.774,340.49,95.06,319.218,87.243z"/>
	</g>
</g>
<g>
	<g>
		<path d="M493.456,474.593l-11.514-69.535c-2.62-15.797-13.604-28.998-28.661-34.446l-92.061-33.305l20.409,40.923
			c1.262,2.531,1.137,5.528-0.333,7.946c-1.47,2.418-4.078,3.904-6.902,3.953l-23.643,0.362l6.347,12.125
			c1.732,3.31,1.021,7.368-1.736,9.891l-87.542,80.084h210.372c4.552,0,8.855-1.992,11.796-5.464
			C492.934,483.656,494.2,479.084,493.456,474.593z"/>
	</g>
</g>
<g>
	<g>
		<polygon points="182.097,319.438 160.848,327.063 201.4,400.782 218.579,377.385 218.583,377.378 226.755,366.251 
			235.109,354.869 		"/>
	</g>
</g>
<g>
	<g>
		<path d="M154.082,404.641l61.826,56.669l-22.71-41.296l-0.002-0.002l-43.852-79.719l-16.748,33.582l23.936,0.369
			c2.856,0.048,5.484,1.567,6.943,4.026c1.462,2.451,1.542,5.488,0.217,8.019L154.082,404.641z"/>
	</g>
</g>
<g>
</g>
<g>
</g>
<g>
</g>
<g>
</g>
<g>
</g>
<g>
</g>
<g>
</g>
<g>
</g>
<g>
</g>
<g>
</g>
<g>
</g>
<g>
</g>
<g>
</g>
<g>
</g>
<g>
</g>
</svg>
